# xmcd CD database file
#
# Track frame offsets:
#	200
#	14035
#	29558
#	44733
#	61430
#	74050
#	89305
#	101265
#	123183
#	137053
#	168055
#	179983
#	193820
#	206043
#	221410
#	235433
#	249720
#	264220
#	277903
#	290905
#	303320
#
# Disc length: 4233 seconds
#
# Revision: 0
# Processed by: cddbd v1.5.2PL0 Copyright (c) Steve Scherf et al.
# Submitted via: CDex 1.70beta1
#
DISCID=4e108715
DTITLE=Various Artist - Top Soloists (Topaz)
DYEAR=1900
DGENRE=Jazz
TTITLE0=Singin' the Blues (Till My Daddy Comes Home) - Bix Beiderbecke, Frankie Trumbauer 
TTITLE1=Savoy Blues - Louis Armstrong
TTITLE2=Swing Out - Henry "Red" Allen 
TTITLE3=Moonglow - Benny Goodman and His Orchestra, Jack Teagarden 
TTITLE4=Limehouse Blues - Stéphane Grappelli, Quintet of the Hot Club of France, Django Reinhardt 
TTITLE5=Vibraphone Blues - Goodman Group, Benny Goodman Quartet, Lionel Hampton 
TTITLE6=Heckler's Hop - Roy Eldridge 
TTITLE7=I Can't Get Started - Bunny Berigan and His Orchestra 
TTITLE8=Lazy Afternoon - Benny Carter and His Orchestra 
TTITLE9=Just a Mood - Harry James, Red Norvo, Teddy Wilson 
TTITLE10=Rocks - Mary Lou Williams 
TTITLE11=Boy Meets Horn - Duke Ellington and His Orchestra, Rex Stewart 
TTITLE12=Tea for Two - Art Tatum 
TTITLE13=Lester Leaps In - Count Basie, Count Basie, Lester Young 
TTITLE14=Body and Soul - Coleman Hawkins and His Orchestra 
TTITLE15=Rosetta - Earl Hines 
TTITLE16=Cotton Tail - Duke Ellington and His Orchestra, Ben Webster 
TTITLE17=Day Dream - Johnny Hodges 
TTITLE18=Solo Flight - Charlie Christian, Benny Goodman and His Orchestra 
TTITLE19=Swingmatism - Jay McShann and His Orchestra, Charlie Parker 
TTITLE20=Little John Special - Dizzy Gillespie, Lucky Millinder, Lucky Millinder 
EXTD=
EXTT0=
EXTT1=
EXTT2=
EXTT3=
EXTT4=
EXTT5=
EXTT6=
EXTT7=
EXTT8=
EXTT9=
EXTT10=
EXTT11=
EXTT12=
EXTT13=
EXTT14=
EXTT15=
EXTT16=
EXTT17=
EXTT18=
EXTT19=
EXTT20=
PLAYORDER=
